PathFileType	4	(X/Y/Z)	\\147.46.242.158\로컬 디스크 (e)\MOCAP Data\Iguana Capture\iguana\Project 2\Capture day 7\Session 2\Take13.trc
DataRate	CameraRate	NumFrames	NumMarkers	Units	OrigDataRate	OrigDataStartFrame	OrigNumFrames
120.0	120.0	16	23	mm	120.0	250	7542
Frame#	Time	ana:head1			ana:head2			ana:bone1			ana:bone2			ana:bone3			ana:tail1			ana:tail2			ana:tail3			ana:tail4			ana:Rforefoot1			ana:Rforefoot2			ana:Rforefoot3			ana:Lforefoot1			ana:Lforefoot2			ana:Lforefoot3			ana:RhindLeg1			ana:RhindLeg2			ana:RhindLeg3			ana:RhindLeg4			ana:LhindLeg1			ana:LhindLeg2			ana:LhindLeg3			ana:LhindLeg4			
		X1	Y1	Z1	X2	Y2	Z2	X3	Y3	Z3	X4	Y4	Z4	X5	Y5	Z5	X6	Y6	Z6	X7	Y7	Z7	X8	Y8	Z8	X9	Y9	Z9	X10	Y10	Z10	X11	Y11	Z11	X12	Y12	Z12	X13	Y13	Z13	X14	Y14	Z14	X15	Y15	Z15	X16	Y16	Z16	X17	Y17	Z17	X18	Y18	Z18	X19	Y19	Z19	X20	Y20	Z20	X21	Y21	Z21	X22	Y22	Z22	X23	Y23	Z23	

4669	38.900	407.02359	151.00417	56.50140	407.83807	160.96326	56.05824	407.28351	182.48320	45.51876	401.62384	209.09631	39.91437	397.15997	241.57861	31.31065	391.87729	272.55380	22.62772	376.84482	305.42374	12.44798	355.30331	340.82898	6.43616	333.86703	376.45932	4.28571	398.48099	175.56041	30.34707	386.12186	184.56023	32.18982	383.27835	170.10260	19.60922	422.22864	179.77487	28.53305	430.08527	186.02008	18.69505	427.91730	183.30519	1.65307	387.48410	239.90129	24.45323	372.53705	228.97731	18.00474	371.93567	240.44916	3.46821	370.84488	230.07672	5.67478	405.40997	245.52544	25.23504	419.26437	257.46927	23.03501	424.40674	278.97849	17.43876	431.66812	281.52054	8.95968	
4670	38.908	406.93515	150.83310	56.50730	407.85229	160.83348	56.03872	407.21667	182.43867	45.50565	401.43225	208.92888	39.75331	397.02640	241.39148	31.16951	391.88199	272.45462	22.50784	376.93549	305.39282	12.38889	355.34250	340.70099	6.41623	333.92056	376.33096	4.27992	398.36111	175.47856	30.44862	386.07010	183.96907	32.02801	383.40054	169.00040	20.20488	422.24734	179.80992	28.59639	430.04718	185.97237	18.71226	427.97665	183.07373	1.72875	387.36389	239.77589	24.31303	372.53369	228.93790	17.94631	371.52933	240.74258	3.59935	370.10797	230.55217	6.21334	405.33441	245.32500	25.14091	419.30554	257.12473	23.04950	424.40063	278.63083	17.37464	431.65753	281.25159	8.94229	
4671	38.917	406.85855	150.69037	56.52575	407.86401	160.73882	56.02485	407.15753	182.39493	45.45929	401.24774	208.77646	39.60551	396.94061	241.31770	31.13904	391.88922	272.32251	22.37021	377.00711	305.38229	12.30669	355.35699	340.63025	6.41183	333.96909	376.22369	4.27499	398.28317	175.50458	30.45359	386.04718	183.49524	31.85718	383.61783	168.00102	20.74802	422.29657	179.88896	28.70188	430.00369	185.92892	18.73139	428.02899	182.85696	1.80554	387.22733	239.62988	24.15217	372.51660	228.89058	17.86198	371.26135	240.92293	3.67771	369.66962	230.83519	6.54125	405.23615	245.20512	25.05920	419.32687	256.82181	23.05177	424.35135	278.33716	17.30021	431.62045	281.00247	8.92145	
4672	38.925	406.78864	150.59146	56.55350	407.89056	160.69347	56.03569	407.12628	182.27031	45.38656	401.03607	208.65428	39.52414	396.86530	241.30647	31.19501	391.88361	272.18024	22.21224	377.07379	305.37601	12.20481	355.36932	340.55786	6.39510	334.01566	376.14304	4.26365	398.21741	175.48659	30.42535	385.96329	183.05713	31.63968	383.98547	167.16278	21.15458	422.46860	180.04234	28.89065	429.96121	185.89589	18.75112	428.05936	182.69286	1.87125	387.11948	239.50580	24.00191	372.46002	228.82077	17.74404	371.16928	240.95497	3.67876	369.87115	230.75661	6.38122	405.13055	245.09627	24.97458	419.30457	256.56973	23.04034	424.22714	278.09424	17.16632	431.55658	280.79044	8.89544	
4673	38.933	406.74362	150.54935	56.66639	407.89749	160.69289	56.05280	407.07858	182.15227	45.34299	400.77954	208.62773	39.50557	396.77570	241.38568	31.24655	391.86472	272.04987	22.05021	377.13675	305.32886	12.06182	355.38477	340.49045	6.37717	334.04825	376.08051	4.25985	398.18924	175.49181	30.34772	385.78522	182.61772	31.41121	384.52563	166.51099	21.37274	422.56061	180.15338	29.02320	429.91467	185.87181	18.76885	428.07822	182.56894	1.94237	387.04083	239.40369	23.87453	372.35080	228.75046	17.61122	371.16537	240.95242	3.68212	370.34119	230.53923	5.96997	405.00885	244.99654	24.90379	419.23331	256.36386	23.00544	424.04626	277.90991	17.01707	431.46051	280.61862	8.89072	
4674	38.942	406.73706	150.52831	56.79451	407.87180	160.71812	56.09024	407.00287	182.05138	45.32723	400.49622	208.62256	39.54030	396.69275	241.43434	31.27861	391.82230	271.98065	21.90117	377.19739	305.22607	11.87613	355.42038	340.38254	6.34357	334.06424	376.03580	4.26367	398.19885	175.22615	30.28621	385.48938	182.16156	31.12684	385.21536	166.01334	21.29967	422.55313	180.20766	29.07825	429.86755	185.86150	18.77744	428.07962	182.50970	2.00597	386.98837	239.33362	23.77960	372.20020	228.67101	17.47425	371.32861	240.87791	3.60599	371.09650	230.09816	5.40992	404.84518	244.91428	24.81341	419.10495	256.19229	22.92538	423.81897	277.74924	16.84292	431.31961	280.48648	8.90990	
4675	38.950	406.74899	150.47592	56.90850	407.81503	160.73393	56.12051	406.94217	181.87038	45.27586	400.20505	208.65071	39.61737	396.55380	241.37076	31.21202	391.76569	271.96829	21.77747	377.24585	305.10748	11.67494	355.46893	340.24197	6.29136	334.07089	376.01108	4.26565	398.24966	174.88206	30.16083	385.12222	181.67197	30.71246	385.98666	165.61313	21.00403	422.41199	180.17412	29.02032	429.82346	185.86673	18.77812	428.08685	182.44318	2.08324	386.92807	239.29037	23.69295	372.03641	228.60806	17.36595	371.66724	240.68124	3.43919	372.00873	229.50412	4.78362	404.64423	244.82797	24.70269	418.94354	256.03772	22.82810	423.55496	277.62006	16.68806	431.12601	280.39212	8.93031	
4676	38.958	406.81332	150.40634	57.02073	407.73328	160.74333	56.13484	406.85773	181.72383	45.22813	399.98810	208.69058	39.66460	396.36694	241.24261	31.05645	391.70963	271.99982	21.68058	377.27731	304.98993	11.46378	355.51840	340.12555	6.24145	334.06653	375.99719	4.26959	398.27606	174.41179	30.05982	384.67770	181.33913	30.17745	386.75793	165.39543	20.43999	422.13553	180.07599	28.86137	429.77249	185.88118	18.76824	428.10458	182.37587	2.15584	386.86044	239.21388	23.58487	371.87387	228.56094	17.28312	372.15692	240.38673	3.19613	372.90927	228.84300	4.22841	404.41864	244.74867	24.58030	418.75174	255.91692	22.71491	423.25485	277.55969	16.57888	430.88138	280.33759	8.95333	
4677	38.967	406.90054	150.37231	57.08681	407.61209	160.72623	56.15163	406.77222	181.61575	45.16828	399.83859	208.75667	39.66229	396.17313	241.08504	30.84952	391.68149	271.98474	21.58793	377.28156	304.93146	11.26882	355.56006	340.04785	6.19250	334.05911	375.99429	4.27510	398.25800	173.94179	29.92269	384.24951	181.01849	29.55294	387.41565	165.25908	19.69104	421.72586	179.92833	28.60312	429.72177	185.89166	18.75267	428.12650	182.31853	2.22061	386.79239	239.10513	23.46187	371.72052	228.53120	17.23399	372.74033	240.03477	2.88054	373.64810	228.22368	3.84162	404.17789	244.69725	24.43101	418.56406	255.82292	22.61263	422.93677	277.54858	16.51812	430.59949	280.31131	8.96579	
4678	38.975	406.98236	150.36893	57.11578	407.48358	160.70836	56.16555	406.68616	181.55202	45.09979	399.75378	208.83571	39.60237	395.95370	240.98927	30.62739	391.66095	271.93744	21.46075	377.27393	304.94946	11.11615	355.62848	340.06912	6.17691	334.05347	375.99466	4.27877	398.04727	173.54256	29.78753	383.87683	180.76245	28.84331	387.94107	165.19225	18.84733	421.43646	179.84050	28.41705	429.65683	185.90256	18.73625	428.14307	182.27710	2.26383	386.71335	239.04927	23.29842	371.57220	228.50787	17.18868	373.31390	239.70279	2.53426	374.10526	227.87901	3.59287	403.97452	244.64827	24.29723	418.39929	255.74089	22.53368	422.61481	277.53485	16.48842	430.32346	280.28864	8.96301	
4679	38.983	407.02365	150.45647	57.17545	407.33353	160.69572	56.18430	406.58914	181.55215	45.04561	399.65314	208.92911	39.49232	395.74918	240.90396	30.42622	391.63229	271.88470	21.31247	377.26801	305.02866	10.99601	355.67862	340.11740	6.15175	334.05087	375.99451	4.27952	397.84485	173.29567	29.55289	383.53497	180.73909	28.15406	388.30704	165.23711	17.95369	421.19519	179.78374	28.27357	429.57852	185.90396	18.71905	428.15469	182.25281	2.29038	386.62024	239.03345	23.11455	371.37851	228.50363	17.14840	373.75665	239.47488	2.22890	374.08383	227.90804	3.57326	403.76337	244.73463	24.18264	418.27890	255.66118	22.48113	422.33228	277.49585	16.48693	430.07394	280.25488	8.94728	
4680	38.992	407.03979	150.53658	57.22153	407.19897	160.69859	56.20207	406.49521	181.55400	44.99492	399.55151	209.01999	39.35638	395.57275	240.80418	30.23791	391.59421	271.84195	21.13217	377.28149	305.15399	10.89972	355.72397	340.16061	6.12451	334.05759	375.99963	4.28150	397.63690	173.11839	29.32537	383.20596	180.79990	27.47239	388.58011	165.33345	17.02723	421.11566	179.80908	28.25003	429.49615	185.89601	18.70525	428.15308	182.24806	2.29358	386.53629	239.11154	22.94211	371.18192	228.51443	17.08518	374.04587	239.37167	1.98854	373.86621	228.24219	3.51539	403.59241	244.80415	24.04888	418.20825	255.56421	22.44940	422.08527	277.38837	16.46226	429.87848	280.18588	8.90891	
4681	39.000	406.98157	150.69946	57.34549	407.07071	160.74243	56.23591	406.39484	181.57649	44.97557	399.40317	209.15024	39.22696	395.39413	240.70712	30.04693	391.54544	271.83957	20.94718	377.32751	305.26407	10.80807	355.78232	340.24380	6.12679	334.06500	376.00836	4.28267	397.49155	173.12323	29.09581	382.85544	180.93916	26.81000	388.79916	165.44995	16.12373	421.04584	179.83322	28.24333	429.41312	185.87344	18.68685	428.14764	182.24179	2.29894	386.44928	239.25876	22.78536	370.98758	228.54005	17.03313	374.13278	239.40593	1.84398	373.54062	228.75970	3.46080	403.45239	244.85051	23.90190	418.19684	255.41396	22.43820	421.88873	277.20987	16.42588	429.72708	280.06918	8.85817	
4682	39.008	406.91913	150.81995	57.44484	406.96552	160.80403	56.26987	406.29776	181.62018	44.98253	399.25983	209.24167	39.09873	395.23254	240.57603	29.86212	391.49377	271.89209	20.76507	377.40033	305.30966	10.67720	355.81024	340.26630	6.11099	334.06888	376.01968	4.28542	397.40222	173.27129	28.88497	382.48676	181.14084	26.17469	388.98831	165.65411	15.18798	421.02234	179.85074	28.26390	429.33191	185.84218	18.68381	428.14508	182.23593	2.30180	386.35764	239.45534	22.64928	370.77524	228.57942	16.97510	374.15994	239.50049	1.75198	373.17065	229.29684	3.42560	403.33377	244.84807	23.74586	418.21402	255.22559	22.42680	421.72723	276.96658	16.37328	429.60736	279.91180	8.81032	
4683	39.017	406.81436	150.91107	57.47522	406.87970	160.87390	56.30770	406.20981	181.67509	45.00240	399.12631	209.30707	38.99866	395.10114	240.58238	29.76878	391.47928	271.93762	20.58701	377.49936	305.27930	10.52133	355.81693	340.26260	6.07965	334.07535	376.03540	4.28543	397.35818	173.50282	28.68506	382.20358	181.30911	25.55030	389.16965	165.85608	14.28692	421.02734	179.86118	28.29733	429.26312	185.80501	18.69414	428.14111	182.23088	2.30461	386.22760	239.60930	22.55114	370.58118	228.62431	16.93019	374.17480	239.57915	1.68637	372.85443	229.71045	3.43574	403.24136	244.78905	23.58659	418.26694	254.98840	22.43156	421.57516	276.67746	16.32059	429.49234	279.73096	8.76110	
4684	39.025	406.73709	150.86604	57.50275	406.79666	160.93782	56.31221	406.12888	181.74380	45.02296	399.06427	209.34239	38.90570	394.98108	240.73009	29.72364	391.49442	271.98495	20.39637	377.58618	305.20358	10.33033	355.79620	340.27081	6.04415	334.07877	376.05380	4.28501	397.32541	173.68196	28.48968	382.01920	181.54617	24.94175	389.39142	166.17365	13.35720	421.09360	179.87096	28.35834	429.20416	185.77078	18.71580	428.13803	182.22604	2.30393	386.07825	239.68532	22.47156	370.41360	228.65729	16.91467	374.18433	239.62300	1.65513	372.61761	229.97208	3.49970	403.18930	244.68213	23.45834	418.33646	254.72900	22.46829	421.38962	276.38565	16.25690	429.36075	279.51019	8.72709	
